<svg width="24" height="24" viewBox="0 0 24 24" fill="none" xmlns="http://www.w3.org/2000/svg">
<path d="M18.5625 6V15.75C18.5625 15.8992 18.5032 16.0423 18.3977 16.1477C18.2923 16.2532 18.1492 16.3125 18 16.3125C17.8508 16.3125 17.7077 16.2532 17.6022 16.1477C17.4968 16.0423 17.4375 15.8992 17.4375 15.75V7.35938L6.39374 18.3937C6.28931 18.4982 6.14768 18.5568 5.99999 18.5568C5.85231 18.5568 5.71067 18.4982 5.60624 18.3937C5.50181 18.2893 5.44315 18.1477 5.44315 18C5.44315 17.8523 5.50181 17.7107 5.60624 17.6063L16.6406 6.5625H8.24999C8.10081 6.5625 7.95773 6.50324 7.85225 6.39775C7.74676 6.29226 7.68749 6.14918 7.68749 6C7.68749 5.85082 7.74676 5.70774 7.85225 5.60225C7.95773 5.49676 8.10081 5.4375 8.24999 5.4375H18C18.1492 5.4375 18.2923 5.49676 18.3977 5.60225C18.5032 5.70774 18.5625 5.85082 18.5625 6Z" fill="#0E1011"/>
</svg>
