<svg width="18" height="16" viewBox="0 0 18 16" fill="none" xmlns="http://www.w3.org/2000/svg">
<path d="M17.6437 8.39371L10.8937 15.1437C10.842 15.1954 10.7807 15.2364 10.7131 15.2644C10.6455 15.2924 10.5731 15.3068 10.5 15.3068C10.4269 15.3068 10.3545 15.2924 10.2869 15.2644C10.2193 15.2364 10.158 15.1954 10.1063 15.1437C10.0545 15.092 10.0135 15.0306 9.98554 14.9631C9.95756 14.8955 9.94315 14.8231 9.94315 14.75C9.94315 14.6768 9.95756 14.6044 9.98554 14.5369C10.0135 14.4693 10.0545 14.4079 10.1063 14.3562L15.8906 8.56246H0.75C0.600816 8.56246 0.457742 8.5032 0.352252 8.39771C0.246763 8.29222 0.1875 8.14915 0.1875 7.99996C0.1875 7.85078 0.246763 7.7077 0.352252 7.60221C0.457742 7.49673 0.600816 7.43746 0.75 7.43746H15.8906L10.1063 1.64371C10.0018 1.53928 9.94315 1.39765 9.94315 1.24996C9.94315 1.10228 10.0018 0.960641 10.1063 0.856212C10.2107 0.751783 10.3523 0.693115 10.5 0.693115C10.6477 0.693115 10.7893 0.751783 10.8937 0.856212L17.6437 7.60621C17.6971 7.657 17.7395 7.71808 17.7685 7.78577C17.7975 7.85345 17.8125 7.92632 17.8125 7.99996C17.8125 8.0736 17.7975 8.14647 17.7685 8.21416C17.7395 8.28184 17.6971 8.34293 17.6437 8.39371Z" fill="#0E1011"/>
</svg>
