<svg width="16" height="18" viewBox="0 0 16 18" fill="none" xmlns="http://www.w3.org/2000/svg">
<path d="M15.1438 10.8937L8.39377 17.6437C8.34299 17.6971 8.2819 17.7395 8.21422 17.7685C8.14653 17.7975 8.07366 17.8125 8.00002 17.8125C7.92638 17.8125 7.85351 17.7975 7.78583 17.7685C7.71815 17.7395 7.65706 17.6971 7.60627 17.6437L0.856273 10.8937C0.751844 10.7893 0.693176 10.6477 0.693176 10.5C0.693176 10.3523 0.751844 10.2107 0.856273 10.1063C0.960702 10.0018 1.10234 9.94315 1.25002 9.94315C1.39771 9.94315 1.53934 10.0018 1.64377 10.1063L7.43752 15.8906V0.75C7.43752 0.600816 7.49679 0.457742 7.60228 0.352252C7.70777 0.246763 7.85084 0.1875 8.00002 0.1875C8.14921 0.1875 8.29228 0.246763 8.39777 0.352252C8.50326 0.457742 8.56252 0.600816 8.56252 0.75V15.8906L14.3563 10.1063C14.4607 10.0018 14.6023 9.94315 14.75 9.94315C14.8977 9.94315 15.0393 10.0018 15.1438 10.1063C15.2482 10.2107 15.3069 10.3523 15.3069 10.5C15.3069 10.6477 15.2482 10.7893 15.1438 10.8937Z" fill="#0E1011"/>
</svg>
